<svg width="40" height="40" fill="none" xmlns="http://www.w3.org/2000/svg"><g filter="url(#filter0_i)"><rect width="40" height="40" rx="8" fill="#D0B576"/></g><path d="M27.976 18.265v-1.58c0-1.92-1.56-3.482-3.479-3.482h-8.994a3.484 3.484 0 00-3.48 3.481v1.58A2.81 2.81 0 0010 20.96v4.275c0 .431.35.781.781.781h1.243a.781.781 0 001.562 0h12.828a.781.781 0 001.562 0h1.243c.431 0 .781-.35.781-.781V20.96a2.81 2.81 0 00-2.024-2.694zm-14.39-1.58a1.92 1.92 0 011.917-1.92h8.994a1.92 1.92 0 011.917 1.92v1.579a2.816 2.816 0 00-1.968 2.139h-8.892a2.82 2.82 0 00-1.968-2.14v-1.579zm14.851 7.768H11.563v-3.494c0-.686.558-1.244 1.243-1.244s1.242.558 1.242 1.244v.225c0 .431.35.781.781.781h10.344a.78.78 0 00.78-.78v-.226c0-.686.558-1.244 1.243-1.244s1.242.558 1.242 1.244v3.494z" fill="#222"/><defs><filter id="filter0_i" x="0" y="0" width="40" height="43" filterUnits="userSpaceOnUse" color-interpolation-filters="sRGB"><feFlood flood-opacity="0" result="BackgroundImageFix"/><feBlend in="SourceGraphic" in2="BackgroundImageFix" result="shape"/><feColorMatrix in="SourceAlpha" values="0 0 0 0 0 0 0 0 0 0 0 0 0 0 0 0 0 0 127 0" result="hardAlpha"/><feOffset dy="3"/><feGaussianBlur stdDeviation="2.5"/><feComposite in2="hardAlpha" operator="arithmetic" k2="-1" k3="1"/><feColorMatrix values="0 0 0 0 0 0 0 0 0 0 0 0 0 0 0 0 0 0 0.17 0"/><feBlend in2="shape" result="effect1_innerShadow"/></filter></defs></svg>