<svg width="40" height="40" fill="none" xmlns="http://www.w3.org/2000/svg"><g filter="url(#filter0_i)"><rect width="40" height="40" rx="8" fill="#D0B576"/></g><path d="M29.219 10H16.817a.852.852 0 00-.488.187l-6.132 6.091a.778.778 0 00-.197.509v12.432c0 .431.35.781.781.781H29.22c.431 0 .781-.35.781-.781V10.78a.781.781 0 00-.781-.781zm-13.164 2.659v3.357h-3.379l3.379-3.357zm12.383 15.778H11.563V17.578h5.273c.431 0 .781-.35.781-.781v-5.235h10.82v16.876zm-11.815-6.21a.782.782 0 00-.217.424l-.552 3.314a.781.781 0 00.77.91c.043 0 3.443-.563 3.443-.563a.782.782 0 00.425-.22l6.077-6.099a.781.781 0 00-.001-1.104l-2.762-2.762a.781.781 0 00-1.106.001l-6.077 6.1zm2.94 2.585l-1.988.331.331-1.99L21.05 20l1.657 1.658-3.143 3.155zm3.692-7.026l1.657 1.657-1.103 1.107-1.657-1.658 1.102-1.106z" fill="#222"/><defs><filter id="filter0_i" x="0" y="0" width="40" height="43" filterUnits="userSpaceOnUse" color-interpolation-filters="sRGB"><feFlood flood-opacity="0" result="BackgroundImageFix"/><feBlend in="SourceGraphic" in2="BackgroundImageFix" result="shape"/><feColorMatrix in="SourceAlpha" values="0 0 0 0 0 0 0 0 0 0 0 0 0 0 0 0 0 0 127 0" result="hardAlpha"/><feOffset dy="3"/><feGaussianBlur stdDeviation="2.5"/><feComposite in2="hardAlpha" operator="arithmetic" k2="-1" k3="1"/><feColorMatrix values="0 0 0 0 0 0 0 0 0 0 0 0 0 0 0 0 0 0 0.17 0"/><feBlend in2="shape" result="effect1_innerShadow"/></filter></defs></svg>