<svg width="40" height="40" fill="none" xmlns="http://www.w3.org/2000/svg"><g filter="url(#filter0_i)"><rect width="40" height="40" rx="8" fill="#D0B576"/></g><g clip-path="url(#clip0)"><path d="M28.136 20.93a8.233 8.233 0 000-1.86l1.354-1.595a.781.781 0 00.082-.896l-1.824-3.158a.781.781 0 00-.817-.378l-2.058.376a8.16 8.16 0 00-1.611-.932l-.703-1.968a.781.781 0 00-.736-.519h-3.646a.781.781 0 00-.736.519l-.703 1.969c-.57.247-1.11.56-1.612.931l-2.058-.376a.782.782 0 00-.817.378l-1.823 3.158a.781.781 0 00.081.896l1.355 1.595a8.239 8.239 0 000 1.86l-1.355 1.595a.781.781 0 00-.081.896l1.823 3.158a.781.781 0 00.817.378l2.058-.376a8.16 8.16 0 001.612.932l.703 1.968a.781.781 0 00.736.52h3.646c.33 0 .625-.209.736-.52l.703-1.968c.57-.248 1.11-.56 1.611-.932l2.058.376a.781.781 0 00.817-.378l1.824-3.158a.781.781 0 00-.082-.896l-1.354-1.595zm-1.593-1.978c.11.694.11 1.401 0 2.096a.781.781 0 00.177.629l1.223 1.44-1.272 2.204-1.86-.34a.781.781 0 00-.634.162 6.609 6.609 0 01-1.813 1.049.781.781 0 00-.457.467l-.635 1.779h-2.545l-.635-1.78a.78.78 0 00-.457-.466 6.61 6.61 0 01-1.813-1.049.781.781 0 00-.633-.162l-1.86.34-1.273-2.204 1.224-1.44a.78.78 0 00.176-.629 6.684 6.684 0 010-2.096.78.78 0 00-.176-.629l-1.224-1.44 1.273-2.204 1.86.34a.781.781 0 00.633-.162 6.61 6.61 0 011.813-1.049.781.781 0 00.457-.467l.635-1.778h2.545l.635 1.778a.78.78 0 00.457.467 6.61 6.61 0 011.813 1.049.781.781 0 00.634.162l1.86-.34 1.272 2.204-1.224 1.44a.781.781 0 00-.176.629zM20 16.094A3.91 3.91 0 0016.093 20 3.91 3.91 0 0020 23.906 3.91 3.91 0 0023.906 20 3.91 3.91 0 0020 16.094zm0 6.25A2.346 2.346 0 0117.656 20 2.346 2.346 0 0120 17.656 2.346 2.346 0 0122.343 20 2.346 2.346 0 0120 22.344zM20.976 20a.977.977 0 11-1.953 0 .977.977 0 011.953 0z" fill="#222"/></g><defs><clipPath id="clip0"><path fill="#fff" transform="translate(10 10)" d="M0 0h20v20H0z"/></clipPath><filter id="filter0_i" x="0" y="0" width="40" height="43" filterUnits="userSpaceOnUse" color-interpolation-filters="sRGB"><feFlood flood-opacity="0" result="BackgroundImageFix"/><feBlend in="SourceGraphic" in2="BackgroundImageFix" result="shape"/><feColorMatrix in="SourceAlpha" values="0 0 0 0 0 0 0 0 0 0 0 0 0 0 0 0 0 0 127 0" result="hardAlpha"/><feOffset dy="3"/><feGaussianBlur stdDeviation="2.5"/><feComposite in2="hardAlpha" operator="arithmetic" k2="-1" k3="1"/><feColorMatrix values="0 0 0 0 0 0 0 0 0 0 0 0 0 0 0 0 0 0 0.17 0"/><feBlend in2="shape" result="effect1_innerShadow"/></filter></defs></svg>