<svg width="40" height="40" fill="none" xmlns="http://www.w3.org/2000/svg"><g filter="url(#filter0_i)"><rect width="40" height="40" rx="8" fill="#D0B576"/></g><g clip-path="url(#clip0)"><path d="M28.709 13.174l-8.438-3.125a.782.782 0 00-.542 0l-8.438 3.125a.781.781 0 00-.51.732c0 9.588 5.392 14.729 8.948 16.045a.781.781 0 00.542 0c2.324-.86 8.948-5.172 8.948-16.045a.781.781 0 00-.51-.732zM16.406 25.658c-2.827-3.057-3.967-7.08-4.056-11.21l4.056-1.503v12.713zm5.625 1.435c-.81.634-1.546 1.055-2.028 1.277a10.85 10.85 0 01-2.034-1.273v-14.73L20 11.614l2.031.753v14.726zm1.563-1.435V12.945l4.056 1.503c-.09 4.117-1.225 8.153-4.056 11.21z" fill="#222"/></g><defs><clipPath id="clip0"><path fill="#fff" transform="translate(10 10)" d="M0 0h20v20H0z"/></clipPath><filter id="filter0_i" x="0" y="0" width="40" height="43" filterUnits="userSpaceOnUse" color-interpolation-filters="sRGB"><feFlood flood-opacity="0" result="BackgroundImageFix"/><feBlend in="SourceGraphic" in2="BackgroundImageFix" result="shape"/><feColorMatrix in="SourceAlpha" values="0 0 0 0 0 0 0 0 0 0 0 0 0 0 0 0 0 0 127 0" result="hardAlpha"/><feOffset dy="3"/><feGaussianBlur stdDeviation="2.5"/><feComposite in2="hardAlpha" operator="arithmetic" k2="-1" k3="1"/><feColorMatrix values="0 0 0 0 0 0 0 0 0 0 0 0 0 0 0 0 0 0 0.17 0"/><feBlend in2="shape" result="effect1_innerShadow"/></filter></defs></svg>