<svg width="40" height="40" fill="none" xmlns="http://www.w3.org/2000/svg"><g filter="url(#filter0_i)"><rect width="40" height="40" rx="8" fill="#D0B576"/></g><g clip-path="url(#clip0)"><path d="M27.134 12.994c-6.224-6.325-17.042-1.958-17.13 6.915-.16 5.373 4.532 10.15 9.907 10.088 8.874.071 13.435-10.666 7.223-17.003zm-6.428 15.412l.007-.745c-.032-1.037-1.512-1.05-1.562-.014l-.007.745a8.45 8.45 0 01-7.55-7.687l.746.006c1.037-.031 1.05-1.511.014-1.562l-.745-.006a8.45 8.45 0 017.687-7.55l-.007.745c.032 1.037 1.512 1.05 1.562.014l.007-.745a8.45 8.45 0 017.55 7.687l-.745-.007c-1.037.032-1.05 1.512-.015 1.563l.746.006a8.45 8.45 0 01-7.688 7.55zm1.4-7.378c.627-1.228-.035-2.794-1.304-3.23l.025-2.712c-.032-1.037-1.512-1.05-1.562-.014l-.025 2.711a2.348 2.348 0 00-1.582 2.195c-.032 1.705 1.804 2.88 3.334 2.145l1.51 1.537a.781.781 0 101.114-1.095l-1.51-1.537zm-1.324-1.003a.763.763 0 01-.77.756.793.793 0 01-.79-.733.782.782 0 01.842-.827.793.793 0 01.718.804z" fill="#222"/></g><defs><clipPath id="clip0"><path fill="#fff" transform="translate(10 10)" d="M0 0h20v20H0z"/></clipPath><filter id="filter0_i" x="0" y="0" width="40" height="43" filterUnits="userSpaceOnUse" color-interpolation-filters="sRGB"><feFlood flood-opacity="0" result="BackgroundImageFix"/><feBlend in="SourceGraphic" in2="BackgroundImageFix" result="shape"/><feColorMatrix in="SourceAlpha" values="0 0 0 0 0 0 0 0 0 0 0 0 0 0 0 0 0 0 127 0" result="hardAlpha"/><feOffset dy="3"/><feGaussianBlur stdDeviation="2.5"/><feComposite in2="hardAlpha" operator="arithmetic" k2="-1" k3="1"/><feColorMatrix values="0 0 0 0 0 0 0 0 0 0 0 0 0 0 0 0 0 0 0.17 0"/><feBlend in2="shape" result="effect1_innerShadow"/></filter></defs></svg>